<mxfile host="app.diagrams.net" modified="2023-06-08T03:38:39.101Z" agent="Mozilla/5.0 (Windows NT 10.0; Win64; x64) AppleWebKit/537.36 (KHTML, like Gecko) Chrome/114.0.0.0 Safari/537.36" etag="k0U0R_QKwfzk9EsRIaAq" version="21.3.7" type="github" pages="2">
  <diagram name="Table Desc" id="ST5IkM-M1hZHzCc8drvt">
    <mxGraphModel dx="880" dy="462" grid="1" gridSize="10" guides="1" tooltips="1" connect="1" arrows="1" fold="1" page="1" pageScale="1" pageWidth="850" pageHeight="1100" math="0" shadow="0">
      <root>
        <mxCell id="0" />
        <mxCell id="1" parent="0" />
        <mxCell id="0JF9NhmOwEg6NhnN-ZLB-1" value="verifycation" style="shape=table;startSize=30;container=1;collapsible=0;childLayout=tableLayout;fixedRows=1;rowLines=0;fontStyle=0;strokeColor=default;fontSize=16;" parent="1" vertex="1">
          <mxGeometry x="40" y="120" width="180" height="61" as="geometry" />
        </mxCell>
        <mxCell id="0JF9NhmOwEg6NhnN-ZLB-2" value="" style="shape=tableRow;horizontal=0;startSize=0;swimlaneHead=0;swimlaneBody=0;top=0;left=0;bottom=0;right=0;collapsible=0;dropTarget=0;fillColor=none;points=[[0,0.5],[1,0.5]];portConstraint=eastwest;strokeColor=inherit;fontSize=16;" parent="0JF9NhmOwEg6NhnN-ZLB-1" vertex="1">
          <mxGeometry y="30" width="180" height="30" as="geometry" />
        </mxCell>
        <mxCell id="0JF9NhmOwEg6NhnN-ZLB-3" value="code" style="shape=partialRectangle;html=1;whiteSpace=wrap;connectable=0;fillColor=none;top=0;left=0;bottom=0;right=0;overflow=hidden;pointerEvents=1;strokeColor=inherit;fontSize=16;" parent="0JF9NhmOwEg6NhnN-ZLB-2" vertex="1">
          <mxGeometry width="90" height="30" as="geometry">
            <mxRectangle width="90" height="30" as="alternateBounds" />
          </mxGeometry>
        </mxCell>
        <mxCell id="0JF9NhmOwEg6NhnN-ZLB-4" value="&lt;font style=&quot;font-size: 12px;&quot;&gt;varchar (20)&lt;/font&gt;" style="shape=partialRectangle;html=1;whiteSpace=wrap;connectable=0;fillColor=none;top=0;left=0;bottom=0;right=0;align=left;spacingLeft=6;overflow=hidden;strokeColor=inherit;fontSize=16;" parent="0JF9NhmOwEg6NhnN-ZLB-2" vertex="1">
          <mxGeometry x="90" width="90" height="30" as="geometry">
            <mxRectangle width="90" height="30" as="alternateBounds" />
          </mxGeometry>
        </mxCell>
        <mxCell id="Yq0hop_wmB0mXFqBZr8J-1" value="TABLE DESCRIPTION" style="text;html=1;strokeColor=#001DBC;fillColor=#0050ef;align=center;verticalAlign=middle;whiteSpace=wrap;rounded=0;fontColor=#ffffff;fontSize=20;" vertex="1" parent="1">
          <mxGeometry x="300" y="10" width="250" height="30" as="geometry" />
        </mxCell>
        <mxCell id="Yq0hop_wmB0mXFqBZr8J-3" value="verifycation" style="shape=table;startSize=30;container=1;collapsible=0;childLayout=tableLayout;fixedRows=1;rowLines=0;fontStyle=0;strokeColor=default;fontSize=16;" vertex="1" parent="1">
          <mxGeometry x="280" y="120" width="180" height="61" as="geometry" />
        </mxCell>
        <mxCell id="Yq0hop_wmB0mXFqBZr8J-4" value="" style="shape=tableRow;horizontal=0;startSize=0;swimlaneHead=0;swimlaneBody=0;top=0;left=0;bottom=0;right=0;collapsible=0;dropTarget=0;fillColor=none;points=[[0,0.5],[1,0.5]];portConstraint=eastwest;strokeColor=inherit;fontSize=16;" vertex="1" parent="Yq0hop_wmB0mXFqBZr8J-3">
          <mxGeometry y="30" width="180" height="30" as="geometry" />
        </mxCell>
        <mxCell id="Yq0hop_wmB0mXFqBZr8J-5" value="code" style="shape=partialRectangle;html=1;whiteSpace=wrap;connectable=0;fillColor=none;top=0;left=0;bottom=0;right=0;overflow=hidden;pointerEvents=1;strokeColor=inherit;fontSize=16;" vertex="1" parent="Yq0hop_wmB0mXFqBZr8J-4">
          <mxGeometry width="90" height="30" as="geometry">
            <mxRectangle width="90" height="30" as="alternateBounds" />
          </mxGeometry>
        </mxCell>
        <mxCell id="Yq0hop_wmB0mXFqBZr8J-6" value="&lt;font style=&quot;font-size: 12px;&quot;&gt;varchar (20)&lt;/font&gt;" style="shape=partialRectangle;html=1;whiteSpace=wrap;connectable=0;fillColor=none;top=0;left=0;bottom=0;right=0;align=left;spacingLeft=6;overflow=hidden;strokeColor=inherit;fontSize=16;" vertex="1" parent="Yq0hop_wmB0mXFqBZr8J-4">
          <mxGeometry x="90" width="90" height="30" as="geometry">
            <mxRectangle width="90" height="30" as="alternateBounds" />
          </mxGeometry>
        </mxCell>
      </root>
    </mxGraphModel>
  </diagram>
  <diagram id="L6fYZIgM-kx8qNFlMRut" name="Flowcart">
    <mxGraphModel dx="880" dy="462" grid="1" gridSize="10" guides="1" tooltips="1" connect="1" arrows="1" fold="1" page="1" pageScale="1" pageWidth="850" pageHeight="1100" math="0" shadow="0">
      <root>
        <mxCell id="0" />
        <mxCell id="1" parent="0" />
        <mxCell id="GVKyF7N5ZkTrnSUsUzHn-4" value="" style="edgeStyle=orthogonalEdgeStyle;rounded=0;orthogonalLoop=1;jettySize=auto;html=1;" edge="1" parent="1" source="GVKyF7N5ZkTrnSUsUzHn-3" target="ZNLnqomUWYNI1v338CHv-5">
          <mxGeometry relative="1" as="geometry" />
        </mxCell>
        <mxCell id="GVKyF7N5ZkTrnSUsUzHn-7" value="" style="edgeStyle=orthogonalEdgeStyle;rounded=0;orthogonalLoop=1;jettySize=auto;html=1;" edge="1" parent="1" source="GVKyF7N5ZkTrnSUsUzHn-3" target="GVKyF7N5ZkTrnSUsUzHn-6">
          <mxGeometry relative="1" as="geometry" />
        </mxCell>
        <mxCell id="GVKyF7N5ZkTrnSUsUzHn-3" value="&lt;p style=&quot;line-height: 100%;&quot;&gt;&lt;font style=&quot;&quot;&gt;&lt;span style=&quot;font-size: 12px; background-color: initial;&quot;&gt;check num rows table&lt;/span&gt;&lt;br&gt;&lt;span style=&quot;background-color: initial;&quot;&gt;&lt;font style=&quot;font-size: 12px;&quot;&gt;store&lt;/font&gt;&lt;/span&gt;&lt;/font&gt;&lt;/p&gt;" style="rhombus;whiteSpace=wrap;html=1;align=center;" vertex="1" parent="1">
          <mxGeometry x="383" y="180" width="85" height="80" as="geometry" />
        </mxCell>
        <mxCell id="ZNLnqomUWYNI1v338CHv-1" value="FLOWCHART" style="text;html=1;strokeColor=#001DBC;fillColor=#0050ef;align=center;verticalAlign=middle;whiteSpace=wrap;rounded=0;fontColor=#ffffff;fontSize=20;" vertex="1" parent="1">
          <mxGeometry x="300" y="10" width="250" height="30" as="geometry" />
        </mxCell>
        <mxCell id="GVKyF7N5ZkTrnSUsUzHn-5" value="" style="edgeStyle=orthogonalEdgeStyle;rounded=0;orthogonalLoop=1;jettySize=auto;html=1;" edge="1" parent="1" source="ZNLnqomUWYNI1v338CHv-3" target="GVKyF7N5ZkTrnSUsUzHn-3">
          <mxGeometry relative="1" as="geometry" />
        </mxCell>
        <mxCell id="ZNLnqomUWYNI1v338CHv-3" value="Start" style="rounded=1;whiteSpace=wrap;html=1;arcSize=50;" vertex="1" parent="1">
          <mxGeometry x="378" y="80" width="95" height="50" as="geometry" />
        </mxCell>
        <mxCell id="ZNLnqomUWYNI1v338CHv-12" value="" style="edgeStyle=orthogonalEdgeStyle;rounded=0;orthogonalLoop=1;jettySize=auto;html=1;" edge="1" parent="1" source="ZNLnqomUWYNI1v338CHv-5" target="ZNLnqomUWYNI1v338CHv-7">
          <mxGeometry relative="1" as="geometry" />
        </mxCell>
        <mxCell id="ZNLnqomUWYNI1v338CHv-5" value="user input the email / wa&amp;nbsp;" style="shape=parallelogram;perimeter=parallelogramPerimeter;whiteSpace=wrap;html=1;fixedSize=1;direction=west;" vertex="1" parent="1">
          <mxGeometry x="180" y="200" width="105" height="40" as="geometry" />
        </mxCell>
        <mxCell id="ZNLnqomUWYNI1v338CHv-7" value="send code verification and insert to DB" style="rounded=1;whiteSpace=wrap;html=1;" vertex="1" parent="1">
          <mxGeometry x="197.5" y="280" width="70" height="60" as="geometry" />
        </mxCell>
        <mxCell id="ZNLnqomUWYNI1v338CHv-13" value="nums row = 0" style="text;html=1;strokeColor=none;fillColor=none;align=center;verticalAlign=middle;whiteSpace=wrap;rounded=0;" vertex="1" parent="1">
          <mxGeometry x="298" y="200" width="80" height="30" as="geometry" />
        </mxCell>
        <mxCell id="GVKyF7N5ZkTrnSUsUzHn-6" value="&lt;font style=&quot;font-size: 9px;&quot;&gt;user choice store or create new store&lt;/font&gt;" style="shape=parallelogram;perimeter=parallelogramPerimeter;whiteSpace=wrap;html=1;fixedSize=1;direction=west;" vertex="1" parent="1">
          <mxGeometry x="560" y="200" width="105" height="40" as="geometry" />
        </mxCell>
      </root>
    </mxGraphModel>
  </diagram>
</mxfile>
